<svg data-v-423bf9ae="" xmlns="http://www.w3.org/2000/svg" viewBox="0 0 646.7613483400966 60" class="font"><!----><!----><!----><g data-v-423bf9ae="" id="07eec089-c1e5-4a69-b7b6-10c554e9be9a" fill="#FF7100" transform="matrix(5.681817956043021,0,0,5.681817956043021,-3.5795557027065,-22.49999884583736)"><path d="M3.89 14.52C5.28 14.52 6.23 13.85 6.69 12.75L5.74 12.17C5.38 12.95 4.77 13.40 3.89 13.40C2.65 13.40 2.02 12.54 2.02 11.35L2.02 10.09C2.02 8.90 2.65 8.05 3.89 8.05C4.73 8.05 5.32 8.48 5.56 9.20L6.64 8.67C6.22 7.63 5.32 6.93 3.89 6.93C1.82 6.93 0.63 8.40 0.63 10.72C0.63 13.05 1.82 14.52 3.89 14.52ZM9.52 14.35L9.52 9.59C9.52 8.88 10.22 8.40 11.42 8.40L12.07 8.40L12.07 7.10L11.63 7.10C10.47 7.10 9.83 7.77 9.59 8.48L9.52 8.48L9.52 7.10L8.22 7.10L8.22 14.35ZM17.91 14.35L19.21 14.35L19.21 7.10L17.91 7.10L17.91 12.05C17.91 12.96 17.07 13.38 16.24 13.38C15.22 13.38 14.70 12.75 14.70 11.54L14.70 7.10L13.40 7.10L13.40 11.73C13.40 13.50 14.32 14.52 15.81 14.52C17.01 14.52 17.57 13.86 17.84 13.16L17.91 13.16ZM22.16 5.59C22.71 5.59 22.95 5.29 22.95 4.87L22.95 4.68C22.95 4.26 22.71 3.96 22.16 3.96C21.62 3.96 21.38 4.26 21.38 4.68L21.38 4.87C21.38 5.29 21.62 5.59 22.16 5.59ZM21.50 14.35L22.81 14.35L22.81 7.10L21.50 7.10ZM27.33 14.52C29.04 14.52 30.10 13.64 30.10 12.22C30.10 11.10 29.44 10.40 27.85 10.16L27.23 10.07C26.39 9.94 25.97 9.67 25.97 9.03C25.97 8.41 26.42 8.01 27.30 8.01C28.17 8.01 28.78 8.41 29.13 8.88L29.96 8.09C29.34 7.36 28.57 6.93 27.34 6.93C25.82 6.93 24.71 7.69 24.71 9.11C24.71 10.46 25.68 11.03 27.06 11.23L27.68 11.33C28.56 11.45 28.84 11.83 28.84 12.36C28.84 13.03 28.34 13.44 27.41 13.44C26.53 13.44 25.86 13.05 25.31 12.36L24.43 13.12C25.10 13.97 25.98 14.52 27.33 14.52ZM34.73 14.52C36.09 14.52 37.14 13.89 37.65 12.95L36.81 12.24C36.41 12.98 35.76 13.41 34.85 13.41C33.54 13.41 32.80 12.54 32.80 11.34L32.80 11.05L37.91 11.05L37.91 10.50C37.91 8.47 36.76 6.93 34.73 6.93C32.72 6.93 31.44 8.43 31.44 10.72C31.44 13.02 32.72 14.52 34.73 14.52ZM34.73 7.98C35.83 7.98 36.53 8.79 36.53 10.00L36.53 10.14L32.80 10.14L32.80 10.04C32.80 8.85 33.60 7.98 34.73 7.98ZM40.99 14.35L40.99 9.38C40.99 8.50 41.79 8.06 42.62 8.06C43.61 8.06 44.07 8.69 44.07 9.91L44.07 14.35L45.37 14.35L45.37 9.38C45.37 8.50 46.14 8.06 46.98 8.06C47.99 8.06 48.45 8.69 48.45 9.91L48.45 14.35L49.76 14.35L49.76 9.72C49.76 7.95 48.89 6.93 47.43 6.93C46.21 6.93 45.49 7.62 45.22 8.40L45.19 8.40C44.81 7.38 43.96 6.93 42.99 6.93C42.03 6.93 41.37 7.55 41.06 8.29L40.99 8.29L40.99 7.10L39.69 7.10L39.69 14.35ZM57.99 14.35L57.99 13.24L57.18 13.24L57.18 9.42C57.18 7.85 56.14 6.93 54.33 6.93C52.99 6.93 52.14 7.56 51.70 8.34L52.49 9.06C52.86 8.44 53.41 8.02 54.26 8.02C55.36 8.02 55.87 8.57 55.87 9.53L55.87 10.19L54.50 10.19C52.43 10.19 51.41 10.95 51.41 12.35C51.41 13.68 52.29 14.52 53.80 14.52C54.84 14.52 55.61 14.04 55.90 13.15L55.97 13.15C56.07 13.85 56.45 14.35 57.25 14.35ZM54.10 13.47C53.28 13.47 52.77 13.09 52.77 12.42L52.77 12.14C52.77 11.47 53.30 11.10 54.49 11.10L55.87 11.10L55.87 12.22C55.87 12.95 55.12 13.47 54.10 13.47ZM60.84 14.35L60.84 9.38C60.84 8.50 61.67 8.06 62.52 8.06C63.55 8.06 64.05 8.69 64.05 9.91L64.05 14.35L65.35 14.35L65.35 9.72C65.35 7.95 64.44 6.93 62.96 6.93C61.87 6.93 61.25 7.49 60.91 8.29L60.84 8.29L60.84 7.10L59.54 7.10L59.54 14.35ZM68.22 5.59C68.77 5.59 69.01 5.29 69.01 4.87L69.01 4.68C69.01 4.26 68.77 3.96 68.22 3.96C67.68 3.96 67.44 4.26 67.44 4.68L67.44 4.87C67.44 5.29 67.68 5.59 68.22 5.59ZM67.56 14.35L68.87 14.35L68.87 7.10L67.56 7.10ZM77.18 14.35L77.18 13.24L76.37 13.24L76.37 9.42C76.37 7.85 75.33 6.93 73.53 6.93C72.18 6.93 71.33 7.56 70.90 8.34L71.68 9.06C72.06 8.44 72.60 8.02 73.46 8.02C74.55 8.02 75.07 8.57 75.07 9.53L75.07 10.19L73.70 10.19C71.62 10.19 70.60 10.95 70.60 12.35C70.60 13.68 71.48 14.52 73.00 14.52C74.03 14.52 74.80 14.04 75.10 13.15L75.17 13.15C75.26 13.85 75.64 14.35 76.44 14.35ZM73.29 13.47C72.48 13.47 71.96 13.09 71.96 12.42L71.96 12.14C71.96 11.47 72.49 11.10 73.68 11.10L75.07 11.10L75.07 12.22C75.07 12.95 74.31 13.47 73.29 13.47ZM81.48 14.52C82.87 14.52 83.82 13.85 84.28 12.75L83.33 12.17C82.96 12.95 82.36 13.40 81.48 13.40C80.23 13.40 79.60 12.54 79.60 11.35L79.60 10.09C79.60 8.90 80.23 8.05 81.48 8.05C82.32 8.05 82.91 8.48 83.15 9.20L84.22 8.67C83.80 7.63 82.91 6.93 81.48 6.93C79.41 6.93 78.22 8.40 78.22 10.72C78.22 13.05 79.41 14.52 81.48 14.52ZM86.60 14.52C87.25 14.52 87.53 14.15 87.53 13.65L87.53 13.44C87.53 12.94 87.25 12.57 86.60 12.57C85.96 12.57 85.68 12.94 85.68 13.44L85.68 13.65C85.68 14.15 85.96 14.52 86.60 14.52ZM92.29 14.52C93.67 14.52 94.63 13.85 95.09 12.75L94.14 12.17C93.77 12.95 93.17 13.40 92.29 13.40C91.04 13.40 90.41 12.54 90.41 11.35L90.41 10.09C90.41 8.90 91.04 8.05 92.29 8.05C93.13 8.05 93.72 8.48 93.95 9.20L95.03 8.67C94.61 7.63 93.72 6.93 92.29 6.93C90.22 6.93 89.03 8.40 89.03 10.72C89.03 13.05 90.22 14.52 92.29 14.52ZM99.32 14.52C101.29 14.52 102.62 13.03 102.62 10.72C102.62 8.41 101.29 6.93 99.32 6.93C97.34 6.93 96.01 8.41 96.01 10.72C96.01 13.03 97.34 14.52 99.32 14.52ZM99.32 13.40C98.18 13.40 97.40 12.68 97.40 11.27L97.40 10.18C97.40 8.76 98.18 8.05 99.32 8.05C100.45 8.05 101.23 8.76 101.23 10.18L101.23 11.27C101.23 12.68 100.45 13.40 99.32 13.40ZM105.70 14.35L105.70 9.38C105.70 8.50 106.50 8.06 107.32 8.06C108.32 8.06 108.78 8.69 108.78 9.91L108.78 14.35L110.08 14.35L110.08 9.38C110.08 8.50 110.85 8.06 111.69 8.06C112.70 8.06 113.16 8.69 113.16 9.91L113.16 14.35L114.46 14.35L114.46 9.72C114.46 7.95 113.60 6.93 112.14 6.93C110.92 6.93 110.19 7.62 109.93 8.40L109.90 8.40C109.52 7.38 108.67 6.93 107.70 6.93C106.74 6.93 106.08 7.55 105.77 8.29L105.70 8.29L105.70 7.10L104.40 7.10L104.40 14.35Z"></path></g><!----><!----></svg>